# xmcd
#
# Track frame offsets:
#	150
#	13316
#	30116
#	37298
#	55522
#	72596
#	92533
#	112137
#	123152
#
# Disc length: 2523 seconds
#
# Revision: 1
# Processed by: cddbd v1.5.2PL0 Copyright (c) Steve Scherf et al.
# Submitted via: audiograbber 1.83.01
#
DISCID=7409d909
DTITLE=Knopf - Magenta Mi
DYEAR=2010
DGENRE=Blues/Rock
TTITLE0=Statue
TTITLE1=Flowering (instrumental)
TTITLE2=Temple I
TTITLE3=Illuminated Castle
TTITLE4=Temple II
TTITLE5=Connected
TTITLE6=Ticket
TTITLE7=Spirit
TTITLE8=Enel Ram
EXTD=www.myspace.com/knopfmusik
EXTT0=
EXTT1=
EXTT2=
EXTT3=
EXTT4=
EXTT5=
EXTT6=
EXTT7=
EXTT8=
PLAYORDER=
